<?xml version='1.0' encoding='utf-8'?>
<!DOCTYPE svg PUBLIC '-//W3C//DTD SVG 1.1//EN' 'http://www.w3.org/Graphics/SVG/1.1/DTD/svg11.dtd'>
<svg version="1.1" xmlns="http://www.w3.org/2000/svg" viewBox="0 0 512 512" xmlns:xlink="http://www.w3.org/1999/xlink" enable-background="new 0 0 512 512">
  <g>
    <g>
      <path d="m500.5,339.6l-46-193.6c-7.1-30-34.2-50.9-65.8-50.9h-265.4c-31.6,0-58.7,20.9-65.8,50.9l-46,193.6c-2.9,15.9 9.7,25.1 19.9,25.1h30.4c9.4-28.3 36.2-48.7 67.2-48.7 31.3,0 57.9,20.4 67.3,48.7h117c9.4-28.4 36.1-48.7 67.2-48.7 31.3,0 57.9,20.4 67.3,48.7h32.9c15.9-0.4 22.3-13.6 19.8-25.1zm-290.8-125c0,11.3-9.1,20.4-20.4,20.4-11.3,0-20.4-9.1-20.4-20.4v-15.3c0-11.3 9.1-20.4 20.4-20.4 11.3,0 20.4,9.1 20.4,20.4v15.3zm66.7,0c0,11.3-9.1,20.4-20.4,20.4-11.3,0-20.4-9.1-20.4-20.4v-15.3c0-11.3 9.1-20.4 20.4-20.4 11.3,0 20.4,9.1 20.4,20.4v15.3zm66.7,0c0,11.3-9.1,20.4-20.4,20.4-11.3,0-20.4-9.1-20.4-20.4v-15.3c0-11.3 9.1-20.4 20.4-20.4 11.3,0 20.4,9.1 20.4,20.4v15.3z"/>
      <circle cx="129" cy="386.9" r="30"/>
      <circle cx="380.5" cy="386.9" r="30"/>
    </g>
  </g>
</svg>
